<svg xmlns="http://www.w3.org/2000/svg" width="800" height="600">
  <g>
    <ellipse cx="150" cy="90" rx="60" ry="30" fill="#e8e8e8"/>
    <text x="150" y="90" font-size="14" text-anchor="middle" fill="#333333">Read Image</text>
  </g>
  <g>
    <ellipse cx="150" cy="180" rx="60" ry="30" fill="#e8e8e8"/>
    <text x="150" y="180" font-size="14" text-anchor="middle" fill="#333333">Locate Triradius and Core</text>
  </g>
  <g>
    <ellipse cx="150" cy="270" rx="60" ry="30" fill="#e8e8e8"/>
    <text x="150" y="270" font-size="14" text-anchor="middle" fill="#333333">Preprocess Image</text>
  </g>
  <g>
    <ellipse cx="150" cy="360" rx="60" ry="30" fill="#e8e8e8"/>
    <text x="150" y="360" font-size="14" text-anchor="middle" fill="#333333">Filter Image</text>
  </g>
  <g>
    <ellipse cx="150" cy="450" rx="60" ry="30" fill="#e8e8e8"/>
    <text x="150" y="450" font-size="14" text-anchor="middle" fill="#333333">Convert to Grayscale</text>
  </g>
  <g>
    <ellipse cx="150" cy="540" rx="60" ry="30" fill="#e8e8e8"/>
    <text x="150" y="540" font-size="14" text-anchor="middle" fill="#333333">Thresholding</text>
  </g>
  <g>
    <ellipse cx="300" cy="450" rx="60" ry="30" fill="#e8e8e8"/>
    <text x="300" y="450" font-size="14" text-anchor="middle" fill="#333333">Find Triradius and Core Contours</text>
  </g>
  <g>
    <ellipse cx="450" cy="450" rx="60" ry="30" fill="#e8e8e8"/>
    <text x="450" y="450" font-size="14" text-anchor="middle" fill="#333333">Exclude Triradius Contour</text>
  </g>
  <g>
    <ellipse cx="600" cy="450" rx="60" ry="30" fill="#e8e8e8"/>
    <text x="600" y="450" font-size="14" text-anchor="middle" fill="#333333">Find Core Contour</text>
  </g>
  <g>
    <ellipse cx="750" cy="450" rx="60" ry="30" fill="#e8e8e8"/>
    <text x="750" y="450" font-size="14" text-anchor="middle" fill="#333333">Count Ridges between Triradius and Core</text>
  </g>
  <g>
    <ellipse cx="750" cy="360" rx="60" ry="30" fill="#e8e8e8"/>
    <text x="750" y="360" font-size="14" text-anchor="middle" fill="#333333">Convert Image to Grayscale (if needed)</text>
  </g>
  <g>
    <ellipse cx="750" cy="270" rx="60" ry="30" fill="#e8e8e8"/>
    <text x="750" y="270" font-size="14" text-anchor="middle" fill="#333333">Enhance Ridges using Custom Kernel</text>
  </g>
  <g>
    <ellipse cx="750" cy="180" rx="60" ry="30" fill="#e8e8e8"/>
    <text x="750" y="180" font-size="14" text-anchor="middle" fill="#333333">Create Mask using ROI Contour</text>
  </g>
  <g>
    <ellipse cx="750" cy="90" rx="60" ry="30" fill="#e8e8e8"/>
    <text x="750" y="90" font-size="14" text-anchor="middle" fill="#333333">Apply Mask to Ridge-Enhanced Image</text>
  </g>
  <g>
    <ellipse cx="600" cy="90" rx="60" ry="30" fill="#e8e8e8"/>
    <text x="600" y="90" font-size="14" text-anchor="middle" fill="#333333">Binarize Result</text>
  </g>
  <g>
    <ellipse cx="450" cy="90" rx="60" ry="30" fill="#e8e8e8"/>
    <text x="450" y="90" font-size="14" text-anchor="middle" fill="#333333">Count Ridges</text>
  </g>
  <g>
    <ellipse cx="300" cy="90" rx="60" ry="30" fill="#e8e8e8"/>
    <text x="300" y="90" font-size="14" text-anchor="middle" fill="#333333">Display Results</text>
  </g>
  <line x1="150" y1="120" x2="150" y2="150" stroke="#333333" stroke-width="2"/>
  <line x1="150" y1="210" x2="150" y2="240" stroke="#333333" stroke-width="2"/>
  <line x1="150" y1="300" x2="150" y2="330" stroke="#333333" stroke-width="2"/>
  <line x1="150" y1="390" x2="150" y2="420" stroke="#333333" stroke-width="2"/>
  <line x1="150" y1="480" x2="150" y2="510" stroke="#333333" stroke-width="2"/>
  <line x1="150" y1="570" x2="150" y2="600" stroke="#333333" stroke-width="2"/>
  <line x1="150" y1="540" x2="300" y2="480" stroke="#333333" stroke-width="2"/>
  <line x1="300" y1="480" x2="450" y2="480" stroke="#333333" stroke-width="2"/>
  <line x1="450" y1="480" x2="600" y2="480" stroke="#333333" stroke-width="2"/>
  <line x1="600" y1="480" x2="750" y2="480" stroke="#333333" stroke-width="2"/>
  <line x1="750" y1="480" x2="750" y2="420" stroke="#333333" stroke-width="2"/>
  <line x1="750" y1="330" x2="750" y2="270" stroke="#333333" stroke-width="2"/>
  <line x1="750" y1="240" x2="750" y2="180" stroke="#333333" stroke-width="2"/>
  <line x1="750" y1="150" x2="750" y2="90" stroke="#333333" stroke-width="2"/>
  <line x1="600" y1="480" x2="600" y2="120" stroke="#333333" stroke-width="2"/>
  <line x1="450" y1="480" x2="450" y2="120" stroke="#333333" stroke-width="2"/>
  <line x1="300" y1="480" x2="300" y2="120" stroke="#333333" stroke-width="2"/>
</svg>
